<?xml version="1.0" encoding="UTF-8" standalone="no"?>
<svg
   width="580"
   height="580"
   viewBox="0 0 580 580"
   fill="none"
   version="1.1"
   id="svg22"
   sodipodi:docname="6.svg"
   inkscape:version="1.1.2 (b8e25be833, 2022-02-05)"
   inkscape:export-filename="C:\Users\micha\Desktop\REACTgitHUB\cosmos\src\assets\planet-pict\internal\6.png"
   inkscape:export-xdpi="300"
   inkscape:export-ydpi="300"
   xmlns:inkscape="http://www.inkscape.org/namespaces/inkscape"
   xmlns:sodipodi="http://sodipodi.sourceforge.net/DTD/sodipodi-0.dtd"
   xmlns="http://www.w3.org/2000/svg"
   xmlns:svg="http://www.w3.org/2000/svg">
  <defs
     id="defs26">
    <mask
       id="mask0_174_16"
       maskUnits="userSpaceOnUse"
       x="78"
       y="62"
       width="416"
       height="416">
      <circle
         cx="286"
         cy="270"
         r="208"
         fill="#ffffff"
         id="circle8" />
    </mask>
    <mask
       id="mask1_174_16"
       maskUnits="userSpaceOnUse"
       x="78"
       y="62"
       width="416"
       height="416">
      <circle
         cx="286"
         cy="270"
         r="208"
         fill="#ffffff"
         id="circle15" />
    </mask>
    <mask
       id="mask2_174_16"
       maskUnits="userSpaceOnUse"
       x="286"
       y="68"
       width="202"
       height="404">
      <path
         fill-rule="evenodd"
         clip-rule="evenodd"
         d="M 286,472 C 397.562,472 488,381.562 488,270 488,158.438 397.562,68 286,68 Z"
         fill="#ffffff"
         id="path24" />
    </mask>
  </defs>
  <sodipodi:namedview
     id="namedview24"
     pagecolor="#ffffff"
     bordercolor="#999999"
     borderopacity="1"
     inkscape:pageshadow="0"
     inkscape:pageopacity="0"
     inkscape:pagecheckerboard="0"
     showgrid="false"
     inkscape:zoom="0.76109248"
     inkscape:cx="164.89455"
     inkscape:cy="307.45278"
     inkscape:window-width="1920"
     inkscape:window-height="1137"
     inkscape:window-x="-8"
     inkscape:window-y="-8"
     inkscape:window-maximized="1"
     inkscape:current-layer="svg22" />
  <mask
     id="mask0_0_7442"
     maskUnits="userSpaceOnUse"
     x="126"
     y="110"
     width="416"
     height="416">
    <circle
       cx="334"
       cy="318"
       r="208"
       fill="#ffffff"
       id="circle6" />
  </mask>
  <mask
     id="mask1_0_7442"
     maskUnits="userSpaceOnUse"
     x="126"
     y="110"
     width="416"
     height="416">
    <circle
       cx="334"
       cy="318"
       r="208"
       fill="#ffffff"
       id="circle13" />
  </mask>
  <g
     id="g871"
     transform="translate(4.0000122,4.000935)">
    <path
       d="M 5.2854,5.28344 C 5.39819,5.16229 5.51315,5.04314 5.6303,4.92599 34.3348,-23.7785 183.288,78.6351 338.326,233.673 c 155.038,155.038 257.452,303.991 228.747,332.696 -0.117,0.117 -0.236,0.232 -0.357,0.345 L 521.192,521.19 c 0.122,-0.112 0.241,-0.226 0.359,-0.344 C 545.6,496.797 459.794,371.998 329.898,242.102 200.001,112.205 75.2024,26.3987 51.1527,50.4484 51.0355,50.5656 50.921,50.6851 50.809,50.807 Z"
       fill="#b87d43"
       id="path2-7" />
    <path
       d="M 61.8477,61.8457 C 84.7337,38.9597 203.485,120.605 327.086,244.206 450.687,367.807 532.332,486.558 509.446,509.444 l -17.143,-17.143 c 0.122,-0.111 0.242,-0.226 0.36,-0.343 C 513.803,470.818 438.572,361.311 324.63,247.369 210.688,133.427 101.181,58.196 80.0408,79.3365 c -0.1172,0.1172 -0.2314,0.2371 -0.3427,0.3597 z"
       fill="#b87d43"
       id="path4" />
    <circle
       cx="286"
       cy="270"
       r="208"
       fill="#fccb6b"
       id="circle6-3" />
    <g
       mask="url(#mask0_174_16)"
       id="g13">
      <path
         fill-rule="evenodd"
         clip-rule="evenodd"
         d="m 492.369,470.472 c -4.686,-4.687 -12.284,-4.687 -16.97,0 -4.687,4.686 -4.687,12.284 0,16.97 l 110.308,110.309 c 4.687,4.686 12.285,4.686 16.971,0 4.686,-4.686 4.686,-12.284 0,-16.971 z M 336.806,314.908 c -4.687,-4.686 -12.285,-4.686 -16.971,0 -4.686,4.686 -4.686,12.284 0,16.971 l 55.154,55.154 -0.007,0.007 c 4.337,4.708 4.222,12.042 -0.346,16.61 -4.568,4.568 -11.903,4.683 -16.61,0.346 l -0.007,0.008 -113.137,-113.137 c -4.687,-4.687 -12.284,-4.687 -16.971,0 -4.686,4.686 -4.686,12.284 0,16.97 l 181.727,181.727 c 4.686,4.686 12.284,4.686 16.97,0 4.687,-4.687 4.687,-12.285 0,-16.971 L 391.96,437.945 c -4.686,-4.687 -4.686,-12.284 0,-16.971 4.686,-4.686 12.284,-4.686 16.971,0 l 21.213,21.213 c 4.686,4.687 12.284,4.687 16.97,0 4.687,-4.686 4.687,-12.284 0,-16.97 z m 77.074,212.839 c -4.686,-4.686 -12.284,-4.686 -16.97,0 -4.687,4.687 -4.687,12.285 0,16.971 l 51.619,51.619 c 4.686,4.686 12.284,4.686 16.97,0 4.686,-4.687 4.686,-12.285 0,-16.971 z M 210.941,324.808 c -4.687,-4.687 -12.285,-4.687 -16.971,0 -4.686,4.686 -4.686,12.284 0,16.97 l 51.619,51.619 c 4.686,4.686 12.284,4.686 16.97,0 4.687,-4.686 4.687,-12.284 0,-16.971 z M 15.7792,146.617 c 4.6863,-4.687 12.2842,-4.687 16.9705,0 l 117.3793,117.38 c 4.687,4.686 4.687,12.284 0,16.97 -4.686,4.686 -12.284,4.686 -16.97,0 L 15.7792,163.587 c -4.6863,-4.686 -4.6863,-12.284 0,-16.97 z M 209.526,221.57 c -4.686,-4.686 -12.284,-4.686 -16.97,0 -4.686,4.686 -4.686,12.284 0,16.971 l 6.364,6.364 c 4.686,4.686 4.686,12.284 0,16.97 -4.686,4.686 -12.284,4.686 -16.971,0 L 0.222837,80.1488 c -4.686307,-4.6864 -4.686297,-12.2843 0,-16.9706 4.686293,-4.6863 12.284263,-4.6863 16.970563,0 L 158.615,204.6 l 0.007,-0.008 c 4.707,4.337 12.042,4.222 16.61,-0.346 4.568,-4.568 4.683,-11.902 0.346,-16.61 l 0.007,-0.007 -16.97,-16.971 c -4.687,-4.686 -4.687,-12.284 0,-16.97 4.686,-4.686 12.284,-4.686 16.97,0 l 110.309,110.309 c 4.686,4.686 4.686,12.284 0,16.97 -4.686,4.686 -12.284,4.686 -16.971,0 z M 7.29391,2.36701 c 4.68629,-4.68629 12.28429,-4.68631 16.97059,0 L 134.573,112.676 c 4.686,4.686 4.686,12.284 0,16.97 -4.686,4.687 -12.284,4.687 -16.97,0 L 7.29391,19.3376 c -4.68631,-4.6863 -4.6863,-12.2843 0,-16.97059 z"
         fill="#ecb55a"
         id="path11" />
    </g>
    <g
       mask="url(#mask1_174_16)"
       id="g20">
      <rect
         opacity="0.0775757"
         x="286"
         y="62"
         width="209.089"
         height="416"
         fill="#000000"
         id="rect18" />
    </g>
    <path
       fill-rule="evenodd"
       clip-rule="evenodd"
       d="M 286,472 C 397.562,472 488,381.562 488,270 488,158.438 397.562,68 286,68 Z"
       fill="#9c4925"
       id="path22" />
    <g
       mask="url(#mask2_174_16)"
       id="g31">
      <path
         d="m 401,270 c 0,62.96 -51.04,114 -114,114 -62.96,0 -114,-51.04 -114,-114 0,-62.96 51.04,-114 114,-114 62.96,0 114,51.04 114,114 z"
         fill="#e09b7f"
         id="path27" />
      <path
         d="m 321,270.5 c 0,19.054 -15.446,34.5 -34.5,34.5 -19.054,0 -34.5,-15.446 -34.5,-34.5 0,-19.054 15.446,-34.5 34.5,-34.5 19.054,0 34.5,15.446 34.5,34.5 z"
         fill="#ffeecc"
         id="path29" />
    </g>
    <path
       d="M 5.2843,5.28467 C 5.16315,5.39745 5.044,5.51242 4.92685,5.62957 -23.7777,34.3341 78.636,183.287 233.674,338.325 388.712,493.363 537.665,595.777 566.37,567.072 c 0.117,-0.117 0.232,-0.236 0.345,-0.357 l -45.524,-45.524 c -0.112,0.122 -0.227,0.242 -0.344,0.359 C 496.797,545.6 371.999,459.794 242.102,329.897 112.206,200 26.3995,75.2017 50.4492,51.152 c 0.1172,-0.1172 0.2368,-0.2318 0.3587,-0.3437 z"
       fill="#b87d43"
       id="path33" />
    <path
       d="M 61.8466,61.8469 C 38.9606,84.733 120.606,203.484 244.207,327.085 367.808,450.686 486.559,532.332 509.445,509.446 l -17.143,-17.144 c -0.111,0.123 -0.226,0.243 -0.343,0.36 C 470.819,513.802 361.312,438.572 247.37,324.629 133.428,210.687 58.1968,101.181 79.3373,80.0401 c 0.1172,-0.1172 0.2371,-0.2314 0.3597,-0.3427 z"
       fill="#b87d43"
       id="path35" />
  </g>
</svg>
