<?xml version="1.0" encoding="UTF-8" standalone="no"?>
<svg
   width="580"
   height="580"
   viewBox="0 0 580 580"
   fill="none"
   version="1.1"
   id="svg18"
   sodipodi:docname="1.svg"
   inkscape:version="1.1.2 (b8e25be833, 2022-02-05)"
   inkscape:export-filename="C:\Users\micha\Desktop\REACTgitHUB\cosmos\src\assets\planet-pict\full\1.png"
   inkscape:export-xdpi="299.91724"
   inkscape:export-ydpi="299.91724"
   xmlns:inkscape="http://www.inkscape.org/namespaces/inkscape"
   xmlns:sodipodi="http://sodipodi.sourceforge.net/DTD/sodipodi-0.dtd"
   xmlns="http://www.w3.org/2000/svg"
   xmlns:svg="http://www.w3.org/2000/svg">
  <defs
     id="defs22" />
  <sodipodi:namedview
     id="namedview20"
     pagecolor="#ffffff"
     bordercolor="#999999"
     borderopacity="1"
     inkscape:pageshadow="0"
     inkscape:pageopacity="0"
     inkscape:pagecheckerboard="0"
     showgrid="false"
     inkscape:zoom="0.61982759"
     inkscape:cx="307.34353"
     inkscape:cy="225.86926"
     inkscape:window-width="1920"
     inkscape:window-height="1137"
     inkscape:window-x="-8"
     inkscape:window-y="-8"
     inkscape:window-maximized="1"
     inkscape:current-layer="svg18" />
  <mask
     id="mask0_0_12771"
     maskUnits="userSpaceOnUse"
     x="0"
     y="0"
     width="290"
     height="290">
    <circle
       cx="145"
       cy="145"
       r="145"
       fill="#ffffff"
       id="circle4" />
  </mask>
  <mask
     id="mask1_0_12771"
     maskUnits="userSpaceOnUse"
     x="0"
     y="0"
     width="290"
     height="290">
    <circle
       cx="145"
       cy="145"
       r="145"
       fill="#ffffff"
       id="circle11" />
  </mask>
  <g
     id="g851"
     transform="translate(145,145)">
    <circle
       cx="145"
       cy="145"
       r="145"
       fill="#def4fc"
       id="circle2" />
    <g
       mask="url(#mask0_0_12771)"
       id="g9">
      <path
         fill-rule="evenodd"
         clip-rule="evenodd"
         d="m 257,25 c 0,-6.6274 -5.373,-12 -12,-12 h -58 c -6.627,0 -12,5.3726 -12,12 0,6.6274 5.373,12 12,12 h 58 c 6.627,0 12,-5.3726 12,-12 z M 73,133 c 6.6274,0 12,5.373 12,12 0,6.627 -5.3726,12 -12,12 h -3 c -6.6274,0 -12,5.373 -12,12 0,6.627 5.3726,12 12,12 h 124 c 6.627,0 12,-5.373 12,-12 0,-6.627 -5.373,-12 -12,-12 h -52 l -0.001,-0.01 C 135.604,156.727 130.5,151.46 130.5,145 c 0,-6.46 5.104,-11.727 11.499,-11.99 L 142,133 h 2 c 6.627,0 12,-5.373 12,-12 0,-6.627 -5.373,-12 -12,-12 H 99 l 4e-4,-0.01 C 92.6047,108.728 87.5,103.46 87.5,97 87.5,90.5399 92.6047,85.2721 99.0004,85.0102 L 99,85 h 20 c 6.627,0 12,-5.3726 12,-12 0,-6.6274 -5.373,-12 -12,-12 H 46 c -6.6274,0 -12,5.3726 -12,12 0,6.6274 5.3726,12 12,12 h 5 c 6.6274,0 12,5.3726 12,12 0,6.627 -5.3726,12 -12,12 H 2 c -6.62742,0 -12,5.373 -12,12 0,6.627 5.37258,12 12,12 z m 57,72 c 6.627,0 12,5.373 12,12 0,6.627 -5.373,12 -12,12 -6.627,0 -12,-5.373 -12,-12 0,-6.627 5.373,-12 12,-12 z m 122,12 c 0,-6.627 -5.373,-12 -12,-12 h -62 c -6.627,0 -12,5.373 -12,12 0,6.627 5.373,12 12,12 h 62 c 6.627,0 12,-5.373 12,-12 z m -86,48 c 0,-6.627 -5.373,-12 -12,-12 h -20 c -6.627,0 -12,5.373 -12,12 0,6.627 5.373,12 12,12 h 20 c 6.627,0 12,-5.373 12,-12 z m 79,-108 c 6.627,0 12,5.373 12,12 0,6.627 -5.373,12 -12,12 -6.627,0 -12,-5.373 -12,-12 0,-6.627 5.373,-12 12,-12 z M 34,169 c 0,-6.627 -5.3726,-12 -12,-12 H 2 c -6.62742,0 -12,5.373 -12,12 0,6.627 5.37258,12 12,12 h 20 c 6.6274,0 12,-5.373 12,-12 z M 221,61 c 6.627,0 12,5.3726 12,12 0,6.6274 -5.373,12 -12,12 h -20 c -6.627,0 -12,-5.3726 -12,-12 0,-6.6274 5.373,-12 12,-12 z"
         fill="#b1d5e2"
         id="path7" />
    </g>
    <g
       mask="url(#mask1_0_12771)"
       id="g16">
      <rect
         opacity="0.0775757"
         x="146"
         width="145"
         height="290"
         fill="#000000"
         id="rect14"
         y="0" />
    </g>
  </g>
</svg>
