<?xml version="1.0" encoding="UTF-8" standalone="no"?>
<svg
   width="580"
   height="580"
   viewBox="0 0 580 580"
   fill="none"
   version="1.1"
   id="svg46"
   sodipodi:docname="3.svg"
   inkscape:version="1.1.2 (b8e25be833, 2022-02-05)"
   inkscape:export-filename="C:\Users\micha\Desktop\REACTgitHUB\cosmos\src\assets\planet-pict\full\3.png"
   inkscape:export-xdpi="300"
   inkscape:export-ydpi="300"
   xmlns:inkscape="http://www.inkscape.org/namespaces/inkscape"
   xmlns:sodipodi="http://sodipodi.sourceforge.net/DTD/sodipodi-0.dtd"
   xmlns="http://www.w3.org/2000/svg"
   xmlns:svg="http://www.w3.org/2000/svg">
  <defs
     id="defs50" />
  <sodipodi:namedview
     id="namedview48"
     pagecolor="#ffffff"
     bordercolor="#999999"
     borderopacity="1"
     inkscape:pageshadow="0"
     inkscape:pageopacity="0"
     inkscape:pagecheckerboard="0"
     showgrid="false"
     inkscape:zoom="1.1297995"
     inkscape:cx="163.30331"
     inkscape:cy="207.1164"
     inkscape:window-width="1920"
     inkscape:window-height="1137"
     inkscape:window-x="-8"
     inkscape:window-y="-8"
     inkscape:window-maximized="1"
     inkscape:current-layer="svg46" />
  <mask
     id="mask0_0_10742"
     maskUnits="userSpaceOnUse"
     x="0"
     y="0"
     width="450"
     height="450">
    <circle
       cx="225"
       cy="225"
       r="225"
       fill="#ffffff"
       id="circle4" />
  </mask>
  <mask
     id="mask1_0_10742"
     maskUnits="userSpaceOnUse"
     x="0"
     y="0"
     width="450"
     height="450">
    <circle
       cx="225"
       cy="225"
       r="225"
       fill="#ffffff"
       id="circle11" />
  </mask>
  <mask
     id="mask2_0_10742"
     maskUnits="userSpaceOnUse"
     x="0"
     y="0"
     width="450"
     height="450">
    <circle
       cx="225"
       cy="225"
       r="225"
       fill="#ffffff"
       id="circle18" />
  </mask>
  <mask
     id="mask3_0_10742"
     maskUnits="userSpaceOnUse"
     x="0"
     y="0"
     width="450"
     height="450">
    <circle
       cx="225"
       cy="225"
       r="225"
       fill="#ffffff"
       id="circle25" />
  </mask>
  <mask
     id="mask4_0_10742"
     maskUnits="userSpaceOnUse"
     x="0"
     y="0"
     width="450"
     height="450">
    <circle
       cx="225"
       cy="225"
       r="225"
       fill="#ffffff"
       id="circle32" />
  </mask>
  <mask
     id="mask5_0_10742"
     maskUnits="userSpaceOnUse"
     x="0"
     y="0"
     width="450"
     height="450">
    <circle
       cx="225"
       cy="225"
       r="225"
       fill="#ffffff"
       id="circle39" />
  </mask>
  <g
     id="g880"
     transform="translate(65,65)">
    <circle
       cx="225"
       cy="225"
       r="225"
       fill="#545bfe"
       id="circle2" />
    <g
       mask="url(#mask0_0_10742)"
       id="g9">
      <path
         fill-rule="evenodd"
         clip-rule="evenodd"
         d="m 188,27 c 0,-6.6274 -5.373,-12 -12,-12 H -29 c -6.6274,0 -12,5.3726 -12,12 0,6.6274 5.3726,12 12,12 h 48 c 6.6274,0 12,5.3726 12,12 0,6.6274 -5.3726,12 -12,12 H 13 C 6.37258,63 1,68.3726 1,75 1,81.6274 6.37258,87 13,87 H 9 c 6.6274,0 12,5.3726 12,12 0,6.627 -5.3726,12 -12,12 H -1 c -6.62742,0 -12,5.373 -12,12 0,6.627 5.37258,12 12,12 h 119 c 6.627,0 12,-5.373 12,-12 0,-6.627 -5.373,-12 -12,-12 h -5 v -0.01 c -6.395,-0.262 -11.5,-5.53 -11.5,-11.99 0,-6.4598 5.105,-11.7275 11.5,-11.9898 V 87 h 69 c 6.627,0 12,-5.3726 12,-12 0,-6.6274 -5.373,-12 -12,-12 h -7 V 62.9898 C 168.605,62.7275 163.5,57.4598 163.5,51 c 0,-6.4598 5.105,-11.7275 11.5,-11.9898 V 39 h 1 c 6.627,0 12,-5.3726 12,-12 z M 98,159 c 6.627,0 12,5.373 12,12 0,6.627 -5.373,12 -12,12 -6.6274,0 -12,-5.373 -12,-12 0,-6.627 5.3726,-12 12,-12 z m -37,36 c 0,-6.627 -5.3726,-12 -12,-12 H 14 c -6.62742,0 -12,5.373 -12,12 0,6.627 5.37258,12 12,12 h 35 c 6.6274,0 12,-5.373 12,-12 z m 85,144 c 0,6.627 -5.373,12 -12,12 h 5 c -6.627,0 -12,5.373 -12,12 0,6.627 5.373,12 12,12 h 29 c 6.627,0 12,-5.373 12,-12 0,-6.627 -5.373,-12 -12,-12 h 4 v -0.01 c -6.395,-0.262 -11.5,-5.53 -11.5,-11.99 0,-6.46 5.105,-11.728 11.5,-11.99 V 327 h 27 c 6.627,0 12,-5.373 12,-12 0,-6.627 -5.373,-12 -12,-12 v -0.01 c -6.395,-0.262 -11.5,-5.53 -11.5,-11.99 0,-6.46 5.105,-11.728 11.5,-11.99 V 279 h 6 c 6.627,0 12,-5.373 12,-12 0,-6.627 -5.373,-12 -12,-12 h -51 v -0.01 c -6.395,-0.263 -11.5,-5.53 -11.5,-11.99 0,-6.46 5.105,-11.727 11.5,-11.99 V 231 h -2 c 6.627,0 12,-5.373 12,-12 0,-6.627 -5.373,-12 -12,-12 h -49 c -6.6274,0 -12,5.373 -12,12 0,6.627 5.3726,12 12,12 6.627,0 12,5.373 12,12 0,6.627 -5.373,12 -12,12 -6.6274,0 -12,5.373 -12,12 0,6.627 5.3726,12 12,12 h 10 c 6.627,0 12,5.373 12,12 0,6.627 -5.373,12 -12,12 h 2 c -6.627,0 -12,5.373 -12,12 0,6.627 5.373,12 12,12 h 19 c 6.627,0 12,5.373 12,12 z"
         fill="#4fcdf9"
         id="path7" />
    </g>
    <g
       mask="url(#mask1_0_10742)"
       id="g16">
      <path
         fill-rule="evenodd"
         clip-rule="evenodd"
         d="m 422,51 c 0,-6.6274 -5.373,-12 -12,-12 h -24 c -6.627,0 -12,5.3726 -12,12 0,6.6274 5.373,12 12,12 h 24 c 6.627,0 12,-5.3726 12,-12 z m 238,12 c 6.627,0 12,5.3726 12,12 0,6.6274 -5.373,12 -12,12 h -7 v 0.0102 c -6.395,0.2623 -11.5,5.53 -11.5,11.9898 0,6.46 5.105,11.728 11.5,11.99 V 111 h 16 c 6.627,0 12,5.373 12,12 0,6.627 -5.373,12 -12,12 H 495 c -6.627,0 -12,-5.373 -12,-12 0,-6.627 5.373,-12 12,-12 h -5 c 6.627,0 12,-5.373 12,-12 0,-6.6274 -5.373,-12 -12,-12 h -41 c -6.627,0 -12,-5.3726 -12,-12 0,-6.6274 5.373,-12 12,-12 z M 390,327 c 6.627,0 12,-5.373 12,-12 0,-6.627 -5.373,-12 -12,-12 -6.627,0 -12,-5.373 -12,-12 0,-6.627 5.373,-12 12,-12 h -3 c 6.627,0 12,-5.373 12,-12 0,-6.627 -5.373,-12 -12,-12 h -45 c -6.627,0 -12,-5.373 -12,-12 0,-6.627 5.373,-12 12,-12 6.627,0 12,-5.373 12,-12 0,-6.627 -5.373,-12 -12,-12 h -34 c -6.627,0 -12,-5.373 -12,-12 0,-6.627 5.373,-12 12,-12 h 26 c 6.627,0 12,-5.373 12,-12 0,-6.627 -5.373,-12 -12,-12 -6.627,0 -12,-5.373 -12,-12 0,-6.627 5.373,-12 12,-12 h 56 c 6.627,0 12,5.373 12,12 0,6.627 -5.373,12 -12,12 l -10e-4,0.01 c -6.395,0.263 -11.499,5.53 -11.499,11.99 0,6.46 5.104,11.727 11.499,11.99 L 390,183 h 91 c 6.627,0 12,5.373 12,12 0,6.627 -5.373,12 -12,12 h -20 v 0.01 c -6.395,0.263 -11.5,5.53 -11.5,11.99 0,6.46 5.105,11.727 11.5,11.99 V 231 h 10 c 6.627,0 12,5.373 12,12 0,6.627 -5.373,12 -12,12 h -15 l -10e-4,0.01 c -6.395,0.263 -11.499,5.53 -11.499,11.99 0,6.46 5.104,11.727 11.499,11.99 L 456,279 h -2 c 6.627,0 12,5.373 12,12 0,6.627 -5.373,12 -12,12 h -20 v 0.01 c -6.395,0.262 -11.5,5.53 -11.5,11.99 0,6.46 5.105,11.728 11.5,11.99 V 327 h -4 c 6.627,0 12,5.373 12,12 0,6.627 -5.373,12 -12,12 h -36 c -6.627,0 -12,-5.373 -12,-12 0,-6.627 5.373,-12 12,-12 z m 90,-24 c 6.627,0 12,5.373 12,12 0,6.627 -5.373,12 -12,12 -6.627,0 -12,-5.373 -12,-12 0,-6.627 5.373,-12 12,-12 z m -6,-156 c 0,-6.627 -5.373,-12 -12,-12 h -14 c -6.627,0 -12,5.373 -12,12 0,6.627 5.373,12 12,12 h 14 c 6.627,0 12,-5.373 12,-12 z M 371,99 c 0,-6.6274 -5.373,-12 -12,-12 h -24 c -6.627,0 -12,5.3726 -12,12 0,6.627 5.373,12 12,12 h 24 c 6.627,0 12,-5.373 12,-12 z m 26,-12 c 6.627,0 12,5.3726 12,12 0,6.627 -5.373,12 -12,12 h -3 c -6.627,0 -12,-5.373 -12,-12 0,-6.6274 5.373,-12 12,-12 z"
         fill="#4fcdf9"
         id="path14" />
    </g>
    <g
       mask="url(#mask2_0_10742)"
       id="g23">
      <path
         fill-rule="evenodd"
         clip-rule="evenodd"
         d="m 307,51 c 0,-6.6274 -5.373,-12 -12,-12 H 175 c -6.627,0 -12,-5.3726 -12,-12 0,-6.6274 5.373,-12 12,-12 h 49 c 6.627,0 12,-5.37258 12,-12 0,-6.62742 -5.373,-12 -12,-12 h -16 c -6.627,0 -12,-5.3726 -12,-12 0,-6.6274 5.373,-12 12,-12 h 62 c 6.627,0 12,5.3726 12,12 0,6.6274 -5.373,12 -12,12 h 2 v 0.01021 C 265.605,-8.72785 260.5,-3.46005 260.5,3 c 0,6.46005 5.105,11.7279 11.5,11.9898 V 15 h 160 c 6.627,0 12,5.3726 12,12 0,6.6274 -5.373,12 -12,12 h -68 l -10e-4,0.0103 C 357.604,39.273 352.5,44.5405 352.5,51 c 0,6.4595 5.104,11.727 11.499,11.9897 L 364,63 h 3 c 6.627,0 12,5.3726 12,12 0,6.6274 -5.373,12 -12,12 h -76 c -6.627,0 -12,-5.3726 -12,-12 0,-6.6274 5.373,-12 12,-12 h 4 c 6.627,0 12,-5.3726 12,-12 z m 106,60 c 6.627,0 12,5.373 12,12 0,6.627 -5.373,12 -12,12 h -62 c -6.627,0 -12,-5.373 -12,-12 0,-6.627 5.373,-12 12,-12 z m 34,-36 c 0,-6.6274 -5.373,-12 -12,-12 h -20 c -6.627,0 -12,5.3726 -12,12 0,6.6274 5.373,12 12,12 h 20 c 6.627,0 12,-5.3726 12,-12 z M 243,63 c 6.627,0 12,5.3726 12,12 0,6.6274 -5.373,12 -12,12 h -20 c -6.627,0 -12,-5.3726 -12,-12 0,-6.6274 5.373,-12 12,-12 z m 243,-84 c 0,-6.6274 -5.373,-12 -12,-12 H 318 c -6.627,0 -12,5.3726 -12,12 0,6.6274 5.373,12 12,12 h 156 c 6.627,0 12,-5.3726 12,-12 z"
         fill="#ffffff"
         id="path21" />
    </g>
    <g
       mask="url(#mask3_0_10742)"
       id="g30">
      <path
         fill-rule="evenodd"
         clip-rule="evenodd"
         d="m 85,351 c 6.6274,0 12,5.373 12,12 0,6.627 -5.3726,12 -12,12 h -4 c -6.6274,0 -12,5.373 -12,12 0,6.627 5.3726,12 12,12 h 76 c 6.627,0 12,-5.373 12,-12 0,-6.627 -5.373,-12 -12,-12 h -3 l -0.001,-0.01 C 147.604,374.727 142.5,369.46 142.5,363 c 0,-6.46 5.104,-11.727 11.499,-11.99 L 154,351 h 26 c 6.627,0 12,-5.373 12,-12 0,-6.627 -5.373,-12 -12,-12 h -14 v -0.01 c -6.395,-0.262 -11.5,-5.53 -11.5,-11.99 0,-6.46 5.105,-11.728 11.5,-11.99 V 303 h 47 c 6.627,0 12,-5.373 12,-12 0,-6.627 -5.373,-12 -12,-12 H 95 c -6.6274,0 -12,5.373 -12,12 0,6.627 5.3726,12 12,12 h 23 c 6.627,0 12,5.373 12,12 0,6.627 -5.373,12 -12,12 H 17 c -6.6274,0 -12,5.373 -12,12 0,6.627 5.3726,12 12,12 z m 175,-12 c 0,-6.627 -5.373,-12 -12,-12 h -20 c -6.627,0 -12,5.373 -12,12 0,6.627 5.373,12 12,12 h 20 c 6.627,0 12,-5.373 12,-12 z"
         fill="#ffffff"
         id="path28" />
    </g>
    <g
       mask="url(#mask4_0_10742)"
       id="g37">
      <path
         fill-rule="evenodd"
         clip-rule="evenodd"
         d="m 337,447 c 6.627,0 12,5.373 12,12 0,6.627 -5.373,12 -12,12 h -4 c -6.627,0 -12,5.373 -12,12 0,6.627 5.373,12 12,12 h 76 c 6.627,0 12,-5.373 12,-12 0,-6.627 -5.373,-12 -12,-12 h -3 l -10e-4,-0.01 C 399.604,470.727 394.5,465.46 394.5,459 c 0,-6.46 5.104,-11.727 11.499,-11.99 L 406,447 h 26 c 6.627,0 12,-5.373 12,-12 0,-6.627 -5.373,-12 -12,-12 h -14 v -0.01 c -6.395,-0.262 -11.5,-5.53 -11.5,-11.99 0,-6.46 5.105,-11.728 11.5,-11.99 V 399 h 47 c 6.627,0 12,-5.373 12,-12 0,-6.627 -5.373,-12 -12,-12 H 347 c -6.627,0 -12,5.373 -12,12 0,6.627 5.373,12 12,12 h 23 c 6.627,0 12,5.373 12,12 0,6.627 -5.373,12 -12,12 H 269 c -6.627,0 -12,5.373 -12,12 0,6.627 5.373,12 12,12 z m 175,-12 c 0,-6.627 -5.373,-12 -12,-12 h -20 c -6.627,0 -12,5.373 -12,12 0,6.627 5.373,12 12,12 h 20 c 6.627,0 12,-5.373 12,-12 z"
         fill="#ffffff"
         id="path35" />
    </g>
    <g
       mask="url(#mask5_0_10742)"
       id="g44">
      <rect
         opacity="0.0775757"
         x="225.48399"
         y="-25"
         width="250.48399"
         height="500"
         fill="#000000"
         id="rect42" />
    </g>
  </g>
</svg>
