<?xml version="1.0" encoding="UTF-8" standalone="no"?>
<svg
   width="580"
   height="580"
   viewBox="0 0 580 580"
   fill="none"
   version="1.1"
   id="svg32"
   sodipodi:docname="4.svg"
   inkscape:version="1.1.2 (b8e25be833, 2022-02-05)"
   inkscape:export-filename="C:\Users\micha\Desktop\REACTgitHUB\cosmos\src\assets\planet-pict\full\4.png"
   inkscape:export-xdpi="300"
   inkscape:export-ydpi="300"
   xmlns:inkscape="http://www.inkscape.org/namespaces/inkscape"
   xmlns:sodipodi="http://sodipodi.sourceforge.net/DTD/sodipodi-0.dtd"
   xmlns="http://www.w3.org/2000/svg"
   xmlns:svg="http://www.w3.org/2000/svg">
  <defs
     id="defs36" />
  <sodipodi:namedview
     id="namedview34"
     pagecolor="#ffffff"
     bordercolor="#999999"
     borderopacity="1"
     inkscape:pageshadow="0"
     inkscape:pageopacity="0"
     inkscape:pagecheckerboard="0"
     showgrid="false"
     inkscape:zoom="1.0699405"
     inkscape:cx="297.6801"
     inkscape:cy="203.74965"
     inkscape:window-width="1920"
     inkscape:window-height="1137"
     inkscape:window-x="-8"
     inkscape:window-y="-8"
     inkscape:window-maximized="1"
     inkscape:current-layer="svg32" />
  <mask
     id="mask0_0_9632"
     maskUnits="userSpaceOnUse"
     x="0"
     y="0"
     width="336"
     height="336">
    <circle
       cx="168"
       cy="168"
       r="168"
       fill="#ffffff"
       id="circle4" />
  </mask>
  <mask
     id="mask1_0_9632"
     maskUnits="userSpaceOnUse"
     x="0"
     y="0"
     width="336"
     height="336">
    <circle
       cx="168"
       cy="168"
       r="168"
       fill="#ffffff"
       id="circle11" />
  </mask>
  <mask
     id="mask2_0_9632"
     maskUnits="userSpaceOnUse"
     x="0"
     y="0"
     width="336"
     height="336">
    <circle
       cx="168"
       cy="168"
       r="168"
       fill="#ffffff"
       id="circle18" />
  </mask>
  <mask
     id="mask3_0_9632"
     maskUnits="userSpaceOnUse"
     x="0"
     y="0"
     width="336"
     height="336">
    <circle
       cx="168"
       cy="168"
       r="168"
       fill="#ffffff"
       id="circle25" />
  </mask>
  <g
     id="g862"
     transform="translate(122,122)">
    <circle
       cx="168"
       cy="168"
       r="168"
       fill="#ff6a45"
       id="circle2" />
    <g
       mask="url(#mask0_0_9632)"
       id="g9">
      <path
         fill-rule="evenodd"
         clip-rule="evenodd"
         d="m 90,24 c 6.6274,0 12,5.3726 12,12 0,6.6274 -5.3726,12 -12,12 H 41 c -6.6274,0 -12,5.3726 -12,12 0,6.6274 5.3726,12 12,12 h 127 c 6.627,0 12,-5.3726 12,-12 0,-6.6274 -5.373,-12 -12,-12 h -13 l -0.001,-0.0103 C 148.604,47.727 143.5,42.4595 143.5,36 c 0,-6.4595 5.104,-11.727 11.499,-11.9897 L 155,24 h 56 c 6.627,0 12,-5.3726 12,-12 C 223,5.37258 217.627,0 211,0 H 55 c -6.6274,0 -12,5.37258 -12,12 0,6.6274 5.3726,12 12,12 z m 196,36 c 0,-6.6274 -5.373,-12 -12,-12 h -5 c -6.627,0 -12,5.3726 -12,12 0,6.6274 5.373,12 12,12 h 5 c 6.627,0 12,-5.3726 12,-12 z"
         fill="#ff9b6b"
         id="path7" />
    </g>
    <g
       mask="url(#mask1_0_9632)"
       id="g16">
      <path
         fill-rule="evenodd"
         clip-rule="evenodd"
         d="m 197,312 c 6.627,0 12,5.373 12,12 0,6.627 -5.373,12 -12,12 h -49 c -6.627,0 -12,5.373 -12,12 0,6.627 5.373,12 12,12 h 127 c 6.627,0 12,-5.373 12,-12 0,-6.627 -5.373,-12 -12,-12 h -13 l -10e-4,-0.01 C 255.604,335.727 250.5,330.46 250.5,324 c 0,-6.46 5.104,-11.727 11.499,-11.99 L 262,312 h 56 c 6.627,0 12,-5.373 12,-12 0,-6.627 -5.373,-12 -12,-12 H 162 c -6.627,0 -12,5.373 -12,12 0,6.627 5.373,12 12,12 z m 196,36 c 0,-6.627 -5.373,-12 -12,-12 h -5 c -6.627,0 -12,5.373 -12,12 0,6.627 5.373,12 12,12 h 5 c 6.627,0 12,-5.373 12,-12 z"
         fill="#ff9b6b"
         id="path14" />
    </g>
    <g
       mask="url(#mask2_0_9632)"
       id="g23">
      <path
         fill-rule="evenodd"
         clip-rule="evenodd"
         d="m 139,72 c 6.627,0 12,5.3726 12,12 0,6.6274 -5.373,12 -12,12 H 99 C 92.3726,96 87,90.6274 87,84 87,77.3726 92.3726,72 99,72 Z m 124,96 c 6.627,0 12,5.373 12,12 0,6.627 -5.373,12 -12,12 H 112 l -0.001,0.01 c -6.395,0.263 -11.499,5.53 -11.499,11.99 0,6.46 5.104,11.727 11.499,11.99 L 112,216 h 19 c 6.627,0 12,5.373 12,12 0,6.627 -5.373,12 -12,12 H 11 c -6.62742,0 -12,-5.373 -12,-12 0,-6.627 5.37258,-12 12,-12 h 32 c 6.6274,0 12,-5.373 12,-12 0,-6.627 -5.3726,-12 -12,-12 h -64 c -6.6274,0 -12,-5.373 -12,-12 0,-6.627 5.3726,-12 12,-12 z M 112,276 c 0,-6.627 -5.373,-12 -12,-12 H 80 c -6.6274,0 -12,5.373 -12,12 0,6.627 5.3726,12 12,12 h 20 c 6.627,0 12,-5.373 12,-12 z m 117,0 c 0,-6.627 -5.373,-12 -12,-12 h -62 c -6.627,0 -12,5.373 -12,12 0,6.627 5.373,12 12,12 h 62 c 6.627,0 12,-5.373 12,-12 z m -6,-48 c 0,-6.627 -5.373,-12 -12,-12 h -20 c -6.627,0 -12,5.373 -12,12 0,6.627 5.373,12 12,12 h 20 c 6.627,0 12,-5.373 12,-12 z M 360,84 c 0,-6.6274 -5.373,-12 -12,-12 h -40 c -6.627,0 -12,5.3726 -12,12 0,6.6274 5.373,12 12,12 h 40 c 6.627,0 12,-5.3726 12,-12 z"
         fill="#d04237"
         id="path21" />
    </g>
    <g
       mask="url(#mask3_0_9632)"
       id="g30">
      <rect
         opacity="0.0775757"
         x="169"
         y="-16"
         width="184"
         height="368"
         fill="#000000"
         id="rect28" />
    </g>
  </g>
</svg>
