<?xml version="1.0" encoding="UTF-8" standalone="no"?>
<svg
   width="580"
   height="580"
   viewBox="0 0 580 580"
   fill="none"
   version="1.1"
   id="svg46"
   sodipodi:docname="5.svg"
   inkscape:version="1.1.2 (b8e25be833, 2022-02-05)"
   inkscape:export-filename="C:\Users\micha\Desktop\REACTgitHUB\cosmos\src\assets\planet-pict\full\5.png"
   inkscape:export-xdpi="300"
   inkscape:export-ydpi="300"
   xmlns:inkscape="http://www.inkscape.org/namespaces/inkscape"
   xmlns:sodipodi="http://sodipodi.sourceforge.net/DTD/sodipodi-0.dtd"
   xmlns="http://www.w3.org/2000/svg"
   xmlns:svg="http://www.w3.org/2000/svg">
  <defs
     id="defs50" />
  <sodipodi:namedview
     id="namedview48"
     pagecolor="#ffffff"
     bordercolor="#999999"
     borderopacity="1"
     inkscape:pageshadow="0"
     inkscape:pageopacity="0"
     inkscape:pagecheckerboard="0"
     showgrid="false"
     inkscape:zoom="0.61769759"
     inkscape:cx="123.84701"
     inkscape:cy="330.2587"
     inkscape:window-width="1920"
     inkscape:window-height="1137"
     inkscape:window-x="-8"
     inkscape:window-y="-8"
     inkscape:window-maximized="1"
     inkscape:current-layer="svg46" />
  <mask
     id="mask0_0_8556"
     maskUnits="userSpaceOnUse"
     x="0"
     y="0"
     width="582"
     height="582">
    <circle
       cx="291"
       cy="291"
       r="291"
       fill="#ffffff"
       id="circle4" />
  </mask>
  <mask
     id="mask1_0_8556"
     maskUnits="userSpaceOnUse"
     x="0"
     y="0"
     width="582"
     height="582">
    <circle
       cx="291"
       cy="291"
       r="291"
       fill="#ffffff"
       id="circle11" />
  </mask>
  <mask
     id="mask2_0_8556"
     maskUnits="userSpaceOnUse"
     x="0"
     y="0"
     width="582"
     height="582">
    <circle
       cx="291"
       cy="291"
       r="291"
       fill="#ffffff"
       id="circle18" />
  </mask>
  <mask
     id="mask3_0_8556"
     maskUnits="userSpaceOnUse"
     x="0"
     y="0"
     width="582"
     height="582">
    <circle
       cx="291"
       cy="291"
       r="291"
       fill="#ffffff"
       id="circle25" />
  </mask>
  <mask
     id="mask4_0_8556"
     maskUnits="userSpaceOnUse"
     x="0"
     y="0"
     width="582"
     height="582">
    <circle
       cx="291"
       cy="291"
       r="291"
       fill="#ffffff"
       id="circle32" />
  </mask>
  <mask
     id="mask5_0_8556"
     maskUnits="userSpaceOnUse"
     x="0"
     y="0"
     width="582"
     height="582">
    <circle
       cx="291"
       cy="291"
       r="291"
       fill="#ffffff"
       id="circle39" />
  </mask>
  <g
     id="g880"
     transform="matrix(0.99656357,0,0,0.99656357,1.13e-6,1.13e-6)">
    <circle
       cx="291"
       cy="291"
       r="291"
       fill="#ecad7a"
       id="circle2" />
    <g
       mask="url(#mask0_0_8556)"
       id="g9">
      <path
         fill-rule="evenodd"
         clip-rule="evenodd"
         d="m 38,294 c 6.6274,0 12,5.373 12,12 0,6.627 -5.3726,12 -12,12 h -156 c -6.627,0 -12,-5.373 -12,-12 0,-6.627 5.373,-12 12,-12 z m 220,0 c 6.627,0 12,5.373 12,12 0,6.627 -5.373,12 -12,12 h -78 v 0.01 c -6.395,0.262 -11.5,5.53 -11.5,11.99 0,6.46 5.105,11.728 11.5,11.99 V 342 h 160 c 6.627,0 12,5.373 12,12 0,6.627 -5.373,12 -12,12 H 83 c -6.6274,0 -12,-5.373 -12,-12 0,-6.627 5.3726,-12 12,-12 h 49 c 6.627,0 12,-5.373 12,-12 0,-6.627 -5.373,-12 -12,-12 h -30 c -6.6274,0 -12,-5.373 -12,-12 0,-6.627 5.3726,-12 12,-12 z M 53,390 c 6.6274,0 12,5.373 12,12 0,6.627 -5.3726,12 -12,12 h -73 c -6.6274,0 -12,-5.373 -12,-12 0,-6.627 5.3726,-12 12,-12 z m 287,0 c 6.627,0 12,5.373 12,12 0,6.627 -5.373,12 -12,12 h -73 c -6.627,0 -12,-5.373 -12,-12 0,-6.627 5.373,-12 12,-12 z m 264,12 c 0,-6.627 -5.373,-12 -12,-12 H 426 c -6.627,0 -12,5.373 -12,12 0,6.627 5.373,12 12,12 h 166 c 6.627,0 12,-5.373 12,-12 z M 414,318 c 6.627,0 12,5.373 12,12 0,6.627 -5.373,12 -12,12 h -9 c -6.627,0 -12,5.373 -12,12 0,6.627 5.373,12 12,12 h 257 c 6.627,0 12,-5.373 12,-12 0,-6.627 -5.373,-12 -12,-12 H 462 v -0.01 c -6.395,-0.262 -11.5,-5.53 -11.5,-11.99 0,-6.46 5.105,-11.728 11.5,-11.99 V 318 h 24 c 6.627,0 12,-5.373 12,-12 0,-6.627 -5.373,-12 -12,-12 H 330 c -6.627,0 -12,5.373 -12,12 0,6.627 5.373,12 12,12 z m 298,-12 c 0,-6.627 -5.373,-12 -12,-12 H 544 c -6.627,0 -12,5.373 -12,12 0,6.627 5.373,12 12,12 h 156 c 6.627,0 12,-5.373 12,-12 z"
         fill="#f0d29f"
         id="path7" />
    </g>
    <g
       mask="url(#mask1_0_8556)"
       id="g16">
      <path
         d="m 159,402 c 0,-6.627 -5.373,-12 -12,-12 h -29 c -6.627,0 -12,-5.373 -12,-12 0,-6.627 5.373,-12 12,-12 h 101 c 6.627,0 12,5.373 12,12 0,6.627 -5.373,12 -12,12 h -3 l -0.001,0.01 c -6.395,0.263 -11.499,5.53 -11.499,11.99 0,6.46 5.104,11.727 11.499,11.99 L 216,414 h 3 c 6.627,0 12,5.373 12,12 0,6.627 -5.373,12 -12,12 h -76 c -6.627,0 -12,-5.373 -12,-12 0,-6.627 5.373,-12 12,-12 h 4 c 6.627,0 12,-5.373 12,-12 z"
         fill="#d86534"
         id="path14" />
    </g>
    <g
       mask="url(#mask2_0_8556)"
       id="g23">
      <path
         fill-rule="evenodd"
         clip-rule="evenodd"
         d="m 466,54 c -6.627,0 -12,5.3726 -12,12 0,6.6274 5.373,12 12,12 h 156 c 6.627,0 12,-5.3726 12,-12 0,-6.6274 -5.373,-12 -12,-12 z m -220,0 c -6.627,0 -12,5.3726 -12,12 0,6.6274 5.373,12 12,12 h 78 v 0.0102 c 6.395,0.2619 11.5,5.5297 11.5,11.9898 0,6.4601 -5.105,11.728 -11.5,11.99 V 102 H 164 c -6.627,0 -12,5.373 -12,12 0,6.627 5.373,12 12,12 h 257 c 6.627,0 12,-5.373 12,-12 0,-6.627 -5.373,-12 -12,-12 h -49 c -6.627,0 -12,-5.3726 -12,-12 0,-6.6274 5.373,-12 12,-12 h 30 c 6.627,0 12,-5.3726 12,-12 0,-6.6274 -5.373,-12 -12,-12 z m 205,96 c -6.627,0 -12,5.373 -12,12 0,6.627 5.373,12 12,12 h 73 c 6.627,0 12,-5.373 12,-12 0,-6.627 -5.373,-12 -12,-12 z m -287,0 c -6.627,0 -12,5.373 -12,12 0,6.627 5.373,12 12,12 h 73 c 6.627,0 12,-5.373 12,-12 0,-6.627 -5.373,-12 -12,-12 z m -264,12 c 0,-6.627 5.3726,-12 12,-12 H 78 c 6.6274,0 12,5.373 12,12 0,6.627 -5.3726,12 -12,12 H -88 c -6.6274,0 -12,-5.373 -12,-12 z M 90,78 c -6.6274,0 -12,5.3726 -12,12 0,6.6274 5.3726,12 12,12 h 9 c 6.627,0 12,5.373 12,12 0,6.627 -5.373,12 -12,12 h -257 c -6.627,0 -12,-5.373 -12,-12 0,-6.627 5.373,-12 12,-12 H 42 l -4e-4,-0.01 C 48.3953,101.728 53.5,96.4601 53.5,90 53.5,83.5399 48.3953,78.2721 41.9996,78.0102 L 42,78 H 18 C 11.3726,78 6,72.6274 6,66 6,59.3726 11.3726,54 18,54 h 156 c 6.627,0 12,5.3726 12,12 0,6.6274 -5.373,12 -12,12 z M -208,66 c 0,-6.6274 5.373,-12 12,-12 h 156 c 6.6274,0 12,5.3726 12,12 0,6.6274 -5.3726,12 -12,12 h -156 c -6.627,0 -12,-5.3726 -12,-12 z"
         fill="#dc8e61"
         id="path21" />
    </g>
    <g
       mask="url(#mask3_0_8556)"
       id="g30">
      <path
         fill-rule="evenodd"
         clip-rule="evenodd"
         d="m 624,438 c -6.627,0 -12,5.373 -12,12 0,6.627 5.373,12 12,12 h 156 c 6.627,0 12,-5.373 12,-12 0,-6.627 -5.373,-12 -12,-12 z m -220,0 c -6.627,0 -12,5.373 -12,12 0,6.627 5.373,12 12,12 h 78 v 0.01 c 6.395,0.262 11.5,5.53 11.5,11.99 0,6.46 -5.105,11.728 -11.5,11.99 V 486 H 322 c -6.627,0 -12,5.373 -12,12 0,6.627 5.373,12 12,12 h 257 c 6.627,0 12,-5.373 12,-12 0,-6.627 -5.373,-12 -12,-12 h -49 c -6.627,0 -12,-5.373 -12,-12 0,-6.627 5.373,-12 12,-12 h 30 c 6.627,0 12,-5.373 12,-12 0,-6.627 -5.373,-12 -12,-12 z m 205,96 c -6.627,0 -12,5.373 -12,12 0,6.627 5.373,12 12,12 h 73 c 6.627,0 12,-5.373 12,-12 0,-6.627 -5.373,-12 -12,-12 z m -287,0 c -6.627,0 -12,5.373 -12,12 0,6.627 5.373,12 12,12 h 73 c 6.627,0 12,-5.373 12,-12 0,-6.627 -5.373,-12 -12,-12 z M 58,546 c 0,-6.627 5.3726,-12 12,-12 h 166 c 6.627,0 12,5.373 12,12 0,6.627 -5.373,12 -12,12 H 70 c -6.6274,0 -12,-5.373 -12,-12 z m 190,-84 c -6.627,0 -12,5.373 -12,12 0,6.627 5.373,12 12,12 h 9 c 6.627,0 12,5.373 12,12 0,6.627 -5.373,12 -12,12 H 0 c -6.62744,0 -12,-5.373 -12,-12 0,-6.627 5.37256,-12 12,-12 h 200 v -0.01 c 6.395,-0.262 11.5,-5.53 11.5,-11.99 0,-6.46 -5.105,-11.728 -11.5,-11.99 V 462 h -24 c -6.627,0 -12,-5.373 -12,-12 0,-6.627 5.373,-12 12,-12 h 156 c 6.627,0 12,5.373 12,12 0,6.627 -5.373,12 -12,12 z M -50,450 c 0,-6.627 5.3726,-12 12,-12 h 156 c 6.627,0 12,5.373 12,12 0,6.627 -5.373,12 -12,12 H -38 c -6.6274,0 -12,-5.373 -12,-12 z"
         fill="#d89d6d"
         id="path28" />
    </g>
    <g
       mask="url(#mask4_0_8556)"
       id="g37">
      <path
         fill-rule="evenodd"
         clip-rule="evenodd"
         d="m 177,222 c 6.627,0 12,5.373 12,12 0,6.627 -5.373,12 -12,12 h -10 c -6.627,0 -12,5.373 -12,12 0,6.627 5.373,12 12,12 h 89 c 6.627,0 12,-5.373 12,-12 0,-6.627 -5.373,-12 -12,-12 h -10 l -0.001,-0.01 C 239.604,245.727 234.5,240.46 234.5,234 c 0,-6.46 5.104,-11.727 11.499,-11.99 L 246,222 h 65 c 6.627,0 12,-5.373 12,-12 0,-6.627 -5.373,-12 -12,-12 H 112 c -6.627,0 -12,5.373 -12,12 0,6.627 5.373,12 12,12 z m -46,36 c 0,-6.627 -5.373,-12 -12,-12 H 57 c -6.6274,0 -12,5.373 -12,12 0,6.627 5.3726,12 12,12 h 62 c 6.627,0 12,-5.373 12,-12 z M 9,246 c 6.6274,0 12,5.373 12,12 0,6.627 -5.3726,12 -12,12 h -28 c -6.6274,0 -12,-5.373 -12,-12 0,-6.627 5.3726,-12 12,-12 z m 475,12 c 0,-6.627 -5.373,-12 -12,-12 H 304 c -6.627,0 -12,5.373 -12,12 0,6.627 5.373,12 12,12 h 168 c 6.627,0 12,-5.373 12,-12 z m 64,-12 c 6.627,0 12,5.373 12,12 0,6.627 -5.373,12 -12,12 h -28 c -6.627,0 -12,-5.373 -12,-12 0,-6.627 5.373,-12 12,-12 z m -35,-36 c 0,-6.627 -5.373,-12 -12,-12 H 359 c -6.627,0 -12,5.373 -12,12 0,6.627 5.373,12 12,12 h 142 c 6.627,0 12,-5.373 12,-12 z m 86,-12 c 6.627,0 12,5.373 12,12 0,6.627 -5.373,12 -12,12 h -50 c -6.627,0 -12,-5.373 -12,-12 0,-6.627 5.373,-12 12,-12 z M 52,210 c 0,-6.627 -5.3726,-12 -12,-12 H 12 c -6.62742,0 -12,5.373 -12,12 0,6.627 5.37258,12 12,12 h 28 c 6.6274,0 12,-5.373 12,-12 z"
         fill="#d89d6d"
         id="path35" />
    </g>
    <g
       mask="url(#mask5_0_8556)"
       id="g44">
      <rect
         opacity="0.0775757"
         x="291"
         width="292"
         height="582"
         fill="#000000"
         id="rect42"
         y="0" />
    </g>
  </g>
</svg>
