<?xml version="1.0" encoding="UTF-8" standalone="no"?>
<svg
   width="580"
   height="580"
   viewBox="0 0 580 580"
   fill="none"
   version="1.1"
   id="svg22"
   sodipodi:docname="6.svg"
   inkscape:version="1.1.2 (b8e25be833, 2022-02-05)"
   inkscape:export-filename="C:\Users\micha\Desktop\REACTgitHUB\cosmos\src\assets\planet-pict\full\6.png"
   inkscape:export-xdpi="300"
   inkscape:export-ydpi="300"
   xmlns:inkscape="http://www.inkscape.org/namespaces/inkscape"
   xmlns:sodipodi="http://sodipodi.sourceforge.net/DTD/sodipodi-0.dtd"
   xmlns="http://www.w3.org/2000/svg"
   xmlns:svg="http://www.w3.org/2000/svg">
  <defs
     id="defs26" />
  <sodipodi:namedview
     id="namedview24"
     pagecolor="#ffffff"
     bordercolor="#999999"
     borderopacity="1"
     inkscape:pageshadow="0"
     inkscape:pageopacity="0"
     inkscape:pagecheckerboard="0"
     showgrid="false"
     inkscape:zoom="0.76109248"
     inkscape:cx="65.038088"
     inkscape:cy="320.59179"
     inkscape:window-width="1920"
     inkscape:window-height="1137"
     inkscape:window-x="-8"
     inkscape:window-y="-8"
     inkscape:window-maximized="1"
     inkscape:current-layer="svg22" />
  <mask
     id="mask0_0_7442"
     maskUnits="userSpaceOnUse"
     x="126"
     y="110"
     width="416"
     height="416">
    <circle
       cx="334"
       cy="318"
       r="208"
       fill="#ffffff"
       id="circle6" />
  </mask>
  <mask
     id="mask1_0_7442"
     maskUnits="userSpaceOnUse"
     x="126"
     y="110"
     width="416"
     height="416">
    <circle
       cx="334"
       cy="318"
       r="208"
       fill="#ffffff"
       id="circle13" />
  </mask>
  <g
     id="g850"
     transform="translate(-43.99997,-43.999053)">
    <path
       fill-rule="evenodd"
       clip-rule="evenodd"
       d="m 53.2854,53.2834 c 0.1128,-0.1211 0.2278,-0.2403 0.3449,-0.3574 28.7046,-28.7046 177.6577,73.709 332.6957,228.747 155.038,155.038 257.452,303.991 228.747,332.696 -0.117,0.117 -0.236,0.232 -0.357,0.345 L 569.192,569.19 c 0.122,-0.112 0.242,-0.227 0.359,-0.344 C 593.6,544.797 507.794,419.998 377.898,290.101 248.001,160.205 123.202,74.3986 99.1527,98.4483 99.0356,98.5655 98.921,98.6851 98.8091,98.807 Z m 56.5626,56.5626 c 22.886,-22.8863 141.637,58.759 265.238,182.36 123.601,123.601 205.246,242.352 182.36,265.238 l -17.143,-17.143 c 0.123,-0.111 0.242,-0.226 0.36,-0.343 C 561.803,518.818 486.572,409.311 372.63,295.369 258.688,181.427 149.181,106.196 128.041,127.336 c -0.117,0.118 -0.232,0.238 -0.343,0.36 z"
       fill="#b87d43"
       id="path2" />
    <circle
       cx="334"
       cy="318"
       r="208"
       fill="#fccb6b"
       id="circle4" />
    <g
       mask="url(#mask0_0_7442)"
       id="g11">
      <path
         fill-rule="evenodd"
         clip-rule="evenodd"
         d="m 540.369,518.472 c -4.686,-4.687 -12.284,-4.687 -16.97,0 -4.687,4.686 -4.687,12.284 0,16.97 l 110.308,110.309 c 4.687,4.686 12.285,4.686 16.971,0 4.686,-4.686 4.686,-12.284 0,-16.971 z M 384.806,362.908 c -4.687,-4.686 -12.285,-4.686 -16.971,0 -4.686,4.686 -4.686,12.284 0,16.971 l 55.154,55.154 -0.007,0.007 c 4.337,4.708 4.222,12.042 -0.346,16.61 -4.568,4.568 -11.903,4.683 -16.61,0.346 l -0.007,0.008 -113.137,-113.137 c -4.687,-4.687 -12.284,-4.687 -16.971,0 -4.686,4.686 -4.686,12.284 0,16.97 l 181.727,181.727 c 4.686,4.686 12.284,4.686 16.97,0 4.687,-4.687 4.687,-12.285 0,-16.971 L 439.96,485.945 c -4.686,-4.687 -4.686,-12.285 0,-16.971 4.686,-4.686 12.284,-4.686 16.971,0 l 21.213,21.213 c 4.686,4.687 12.284,4.687 16.97,0 4.687,-4.686 4.687,-12.284 0,-16.97 z m 77.074,212.839 c -4.686,-4.686 -12.284,-4.686 -16.97,0 -4.687,4.687 -4.687,12.285 0,16.971 l 51.619,51.619 c 4.686,4.686 12.284,4.686 16.97,0 4.686,-4.687 4.686,-12.285 0,-16.971 z M 258.941,372.808 c -4.687,-4.687 -12.285,-4.687 -16.971,0 -4.686,4.686 -4.686,12.284 0,16.97 l 51.619,51.619 c 4.686,4.686 12.284,4.686 16.97,0 4.687,-4.686 4.687,-12.284 0,-16.971 z M 63.7792,194.617 c 4.6863,-4.687 12.2842,-4.687 16.9705,0 L 198.129,311.996 c 4.687,4.687 4.687,12.285 0,16.971 -4.686,4.686 -12.284,4.686 -16.97,0 L 63.7792,211.587 c -4.6863,-4.686 -4.6863,-12.284 0,-16.97 z M 257.526,269.57 c -4.686,-4.686 -12.284,-4.686 -16.97,0 -4.686,4.686 -4.686,12.284 0,16.971 l 6.364,6.364 c 4.686,4.686 4.686,12.284 0,16.97 -4.686,4.686 -12.284,4.686 -16.971,0 L 48.2228,128.149 c -4.6863,-4.687 -4.6863,-12.285 0,-16.971 4.6863,-4.686 12.2843,-4.686 16.9706,0 l 141.4216,141.421 0.007,-0.007 c 4.707,4.337 12.042,4.222 16.61,-0.346 4.568,-4.568 4.683,-11.902 0.346,-16.61 l 0.007,-0.007 -16.97,-16.971 c -4.687,-4.686 -4.687,-12.284 0,-16.97 4.686,-4.686 12.284,-4.687 16.97,0 l 110.309,110.308 c 4.686,4.687 4.686,12.285 0,16.971 -4.686,4.686 -12.284,4.686 -16.971,0 z M 55.2939,50.3669 c 4.6863,-4.6862 12.2843,-4.6863 16.9706,0 L 182.573,160.676 c 4.686,4.686 4.686,12.284 0,16.97 -4.686,4.686 -12.284,4.686 -16.97,0 L 55.2939,67.3375 c -4.6863,-4.6863 -4.6863,-12.2843 0,-16.9706 z"
         fill="#ecb55a"
         id="path9" />
    </g>
    <g
       mask="url(#mask1_0_7442)"
       id="g18">
      <rect
         opacity="0.0775757"
         x="334"
         y="110"
         width="209.089"
         height="416"
         fill="#000000"
         id="rect16" />
    </g>
    <path
       fill-rule="evenodd"
       clip-rule="evenodd"
       d="m 53.2842,53.2846 c -0.1211,0.1128 -0.2403,0.2278 -0.3574,0.3449 C 24.2223,82.334 126.636,231.287 281.674,386.325 436.712,541.363 585.665,643.777 614.37,615.072 c 0.117,-0.117 0.232,-0.236 0.344,-0.357 l -45.523,-45.524 c -0.112,0.122 -0.227,0.242 -0.344,0.359 C 544.797,593.6 419.999,507.794 290.102,377.897 160.205,248 74.3994,123.202 98.4492,99.1519 c 0.1171,-0.1172 0.2367,-0.2317 0.3586,-0.3437 z m 56.5618,56.5624 c -22.8855,22.886 58.76,141.637 182.361,265.238 123.601,123.601 242.352,205.247 265.238,182.36 l -17.143,-17.143 c -0.112,0.123 -0.226,0.243 -0.343,0.36 C 518.819,561.802 409.312,486.571 295.37,372.629 181.428,258.687 106.197,149.18 127.337,128.04 c 0.117,-0.117 0.237,-0.231 0.36,-0.343 z"
       fill="#b87d43"
       id="path20" />
  </g>
</svg>
